 <svg
      xmlns="http://www.w3.org/2000/svg"
      width="50"
      height="50"
      version="1.1"
      viewBox="0 0 800 800"
      xmlSpace="preserve"
    >
      <defs>
        <clipPath id="clipPath6074" clipPathUnits="userSpaceOnUse">
          <path d="M0 600h600V0H0z"></path>
        </clipPath>
      </defs>
      <g transform="matrix(1.33333 0 0 -1.33333 0 800)">
        <g>
          <g clipPath="url(#clipPath6074)">
            <path
              fill="navy"
              fillOpacity="1"
              fillRule="nonzero"
              stroke="none"
              d="M517.148 78.602a2.283 2.283 0 00-1.463-.525c-.667 0-1.325.284-1.781.835L254.927 392.84a2.308 2.308 0 00.312 3.245 2.31 2.31 0 003.245-.311L517.457 81.846a2.302 2.302 0 00-.309-3.244M393.54 159.815c-44.6-.913-99.774-7.759-134.934-13.615 3.858 1.419 7.919 2.903 11.989 4.371 9.083 3.276 18.194 6.468 25.072 8.683 1.863.599 3.542 1.118 5.032 1.552 1.267.372 2.399.687 3.333.919 1.019.251 1.824.414 2.385.472.552.076.855 0 .855.022 0-.004-.017.002-.06.015-.108.037-.37.127-.792.171-.572.074-1.413.109-2.483.105-2.134-.008-5.177-.164-8.815-.427-7.278-.533-16.945-1.489-26.597-2.531-4.681-.507-9.359-1.033-13.764-1.54 3.871 1.437 7.964 2.944 12.065 4.435 8.864 3.224 17.751 6.366 24.465 8.536 1.839.596 3.493 1.106 4.962 1.538 1.21.355 2.3.659 3.201.882.994.244 1.781.403 2.324.46.541.072.838.003.838.02 0-.021-.269.123-.832.188-.558.077-1.377.117-2.425.117-2.083.003-5.061-.133-8.613-.377-7.11-.488-16.556-1.391-25.987-2.38-4.576-.48-9.148-.981-13.457-1.461 3.775 1.411 7.755 2.892 11.756 4.358 8.641 3.168 17.305 6.253 23.853 8.385 1.806.588 3.43 1.092 4.867 1.516 1.171.344 2.225.638 3.095.854.968.239 1.74.392 2.27.449.526.064.816.006.819.016 0-.02-.269.121-.814.19-.544.077-1.344.122-2.365.132-2.04.017-4.942-.107-8.41-.328-6.943-.448-16.169-1.297-25.379-2.233a1836.85 1836.85 0 01-13.152-1.385c3.675 1.389 7.553 2.843 11.448 4.283 8.415 3.115 16.86 6.143 23.241 8.233a169.66 169.66 0 004.778 1.495c1.126.335 2.142.619 2.983.828.947.234 1.698.38 2.212.435.513.058.799.008.802.012 0-.015-.26.117-.791.194-.533.08-1.315.132-2.31.145-1.988.03-4.821-.077-8.208-.278-6.776-.404-15.781-1.2-24.768-2.082-1.225-.12-2.453-.242-3.676-.365l2.239 3.365c8.104 3.022 16.212 5.955 22.361 7.981 1.743.573 3.304 1.063 4.687 1.475 1.083.322 2.063.597 2.874.797.923.227 1.652.37 2.156.422.499.055.779.011.779.011 0-.017-.251.113-.77.195-.519.081-1.278.136-2.25.159-1.939.041-4.701-.047-8.005-.23-4.385-.241-9.731-.649-15.388-1.138l3.72 5.584c36.412 6.364 80.588 10.264 105.647 12.138l15.611-18.923c2.579-14.745 5.342-32.704 6.326-46.845m-38.495 84.207c-1.015-.371-2.017-.652-2.973-.908-.947-.287-1.87-.488-2.741-.672-.495-.116-.942-.178-1.407-.264-20.02-1.769-44.584-4.333-68.04-7.829l37.745 56.66 38.446-46.606c-.34-.119-.692-.274-1.03-.381M144.257 42.677a2.304 2.304 0 00-3.835 2.556l169.753 254.809 3.064-3.714zm60.348 281.861c-.042-.107-.085-.218-.128-.321l-1.419.502a95.75 95.75 0 001.547-.181m5.138-8.978c2.934 4.146 6.188 8.799 9.89 13.629 3.684 4.836 7.802 9.869 12.437 14.684a92.328 92.328 0 0015.559 13.164c3.407 2.254 7.035 4.133 10.811 5.719l40.811-49.472-54.996-82.555c-5.24 1.839-11.168 4.741-16.49 8.744-3.637 2.682-6.955 5.841-9.598 9.19-2.667 3.346-4.56 6.914-5.632 10.209-.486 1.648-.85 3.223-.964 4.641a18.523 18.523 0 00-.051 3.716c.069 1.03.217 1.866.348 2.418l.175.858s-.127-.278-.372-.793a15.426 15.426 0 01-.923-2.315 19.735 19.735 0 01-.88-3.85c-.237-1.525-.264-3.276-.165-5.199.285-3.828 1.417-8.284 3.464-12.685 2.021-4.417 4.856-8.823 8.195-12.821 2.138-2.603 4.496-5.006 6.945-7.226-.485.224-.96.432-1.449.672a78.049 78.049 0 00-3.403 1.821c-1.088.667-2.244 1.331-3.327 2.086-2.185 1.451-4.26 3.118-6.264 4.927-1.954 1.778-3.73 3.747-5.358 5.818a43.575 43.575 0 00-4.11 6.329 44.503 44.503 0 00-3.131 7.408 41.865 41.865 0 00-1.308 5.294c-.295 1.914-.474 3.752-.51 5.434-.009.85.012 1.659.053 2.431.054.639.112 1.244.17 1.817.188 1.029.346 1.935.485 2.675.172.433.259.741.243.912-.031.294-.177.454-.419.498-.263.397-.558.598-.916.613-.179.41-.326.652-.5.666-.015.24-.069.302-.163.16-.091-.133-.266-.457-.518-.945a20.685 20.685 0 01-1.337-2.789 30.387 30.387 0 01-1.044-2.866 27.44 27.44 0 01-.481-1.778c-.492-1.9-.799-4.037-.952-6.357a39.517 39.517 0 01.271-7.276 42.657 42.657 0 012.028-8.765 52.967 52.967 0 014.466-9.585 65.613 65.613 0 013.712-5.574 53.383 53.383 0 012.484-3.131c1.109-1.369 2.324-2.621 3.516-3.881a94.589 94.589 0 012.92-2.803 76.058 76.058 0 00-4.861 2.718c-1.283.793-2.54 1.672-3.832 2.56-1.198.953-2.517 1.858-3.679 2.919-2.426 2.018-4.609 4.348-6.66 6.818-2.032 2.46-3.72 5.168-5.184 7.964a42.892 42.892 0 00-3.328 8.57 45.954 45.954 0 00-1.561 9.718 47.682 47.682 0 00.119 6.657c.274 2.394.632 4.633 1.14 6.587.263 1.029.551 1.979.841 2.861.264.752.525 1.449.769 2.094.575 1.253 1.048 2.293 1.423 3.039.383.594.584.953.577 1.039-.021.147-.275.049-.742-.265-.488-.128-1.109-.554-1.883-1.237-.425-.203-.869-.554-1.342-1.085-.148-.074-.318-.246-.512-.53a16.986 16.986 0 01-.659-1.101 28.528 28.528 0 01-1.752-3.262 52.453 52.453 0 01-1.449-3.358 48.014 48.014 0 01-.721-2.083c-.742-2.273-1.336-4.796-1.738-7.515a47.098 47.098 0 01-.45-8.734 47.423 47.423 0 011.585-10.658c1.019-3.734 2.413-7.499 4.304-11.055a67.992 67.992 0 013.852-6.443 50.238 50.238 0 012.653-3.599c1.181-1.6 2.532-3.008 3.807-4.476 1.338-1.381 2.672-2.752 4.046-4.025.468-.431.943-.849 1.418-1.267-.198.102-.384.205-.585.306a84.694 84.694 0 00-8.707 5.412c-1.443 1.034-2.829 2.169-4.263 3.304-1.312 1.237-2.794 2.383-4.028 3.751-2.671 2.588-4.96 5.578-7.061 8.711-2.108 3.14-3.709 6.592-5.01 10.112a45.756 45.756 0 00-2.539 10.81c-.887 7.249-.02 14.255 1.548 20.045.842 2.875 1.743 5.513 2.795 7.739.997 2.257 2.069 4.131 2.992 5.658.962 1.486 1.752 2.659 2.365 3.405.59.761.903 1.168.903 1.168s-.368-.355-1.056-1.029c-.71-.651-1.66-1.703-2.853-3.08-1.145-1.404-2.503-3.152-3.85-5.315-1.399-2.129-2.706-4.702-4.01-7.587-2.484-5.797-4.497-13.111-4.66-21.256a52.438 52.438 0 011.137-12.551c.907-4.227 2.215-8.511 4.142-12.519 1.912-4 4.145-7.917 6.82-11.384 1.25-1.827 2.735-3.389 4.099-5.066a266.75 266.75 0 012.569-2.698c-65.618 31.779-14.812 109.667 23.861 113.444-2.599-6.676-4.457-12.456-5.978-16.93-1.183-3.465-2.067-6.216-2.78-8.038-.722-1.855-1.108-2.842-1.108-2.842s.779.728 2.12 2.199a103.67 103.67 0 015.476 6.729c2.241 2.966 4.822 6.63 7.758 10.784m1.559 89.047c-2.108.14-4.031.175-5.748.383-1.702.279-3.218.53-4.54.747-1.304.272-2.387.618-3.28.84l-2.696.745 2.79-.223c.909-.065 2.015-.218 3.325-.258 1.305-.006 2.804-.013 4.485-.018 1.668.046 3.507.293 5.487.449.971.187 1.984.386 3.035.594 1.051.184 2.131.387 3.19.792 1.068.369 2.191.675 3.289 1.112 1.061.516 2.15 1.043 3.271 1.587 2.058 1.274 4.018 2.432 6.209 4.614 3.777 3.495 6.66 8.74 7.971 14.626 1.336 5.935 1.142 12.57-.013 19.294-1.141 6.754-3.638 13.522-6.572 20.191-3.04 6.646-6.866 13.089-11.234 19.156a131.155 131.155 0 01-14.379 17.106c-5.225 5.221-10.656 10.094-16.35 14.228-5.69 4.134-11.469 7.751-17.24 10.611-5.789 2.794-11.488 5.01-16.922 6.361-5.429 1.382-10.565 1.926-15.116 1.849-4.541-.165-8.497-.933-11.607-2.047-3.114-1.127-5.428-2.42-6.938-3.405-1.491-1.044-2.261-1.643-2.261-1.643s.65.725 1.936 2.02c1.354 1.241 3.421 3.069 6.523 4.696 3.081 1.642 7.155 3.145 12.029 3.874 4.859.697 10.492.8 16.458-.176 5.988-.876 12.332-2.648 18.712-5.278 6.37-2.639 12.86-6.002 19.066-10.233 6.216-4.206 12.363-9.001 17.968-14.54a140.956 140.956 0 0015.622-18.076c4.623-6.574 8.642-13.588 11.857-20.876 3.207-7.293 5.425-14.936 6.466-22.57 1.071-7.622.738-15.337-1.357-22.315-2.038-7.007-6.062-13.026-11.255-16.937-.584-.437-1.161-.866-1.733-1.295l-.862-.632-1.033-.573c-1.384-.716-2.698-1.558-4.039-2.052-1.336-.457-2.638-.9-3.903-1.335-1.283-.335-2.56-.526-3.77-.777-1.209-.29-2.399-.369-3.543-.431-1.145-.076-2.244-.164-3.298-.185m79.207-37.01l3.027-.208a215.59 215.59 0 005.817-.538c3.908-.425 7.79-.88 11.618-1.508 3.819-.635 7.609-1.304 11.325-2.101a232.86 232.86 0 008.82-2.125l-15.853-23.797-24.989 30.291zm75.546 16.323a2.304 2.304 0 103.835-2.555l-40.638-61.001-3.064 3.714zm-2.863 58.784c.2-.886.375-1.991.714-3.255.372-1.252.8-2.693 1.28-4.301.528-1.586 1.292-3.273 2.013-5.123.465-.879.949-1.789 1.448-2.735.482-.951.989-1.926 1.684-2.824.658-.916 1.274-1.902 2.011-2.828l2.468-2.669c1.815-1.604 3.49-3.146 6.209-4.611 4.441-2.606 10.294-3.848 16.308-3.4 6.069.435 12.363 2.54 18.466 5.589 6.139 3.044 11.892 7.391 17.428 12.129 5.485 4.831 10.548 10.358 15.092 16.292a131.596 131.596 0 0112.218 18.71c3.484 6.513 6.579 13.12 8.891 19.767 2.313 6.642 4.101 13.22 5.171 19.572 1.003 6.352 1.476 12.445 1.197 18.04-.248 5.599-1.211 10.67-2.598 15.004-1.475 4.297-3.352 7.86-5.318 10.519-1.977 2.654-3.887 4.496-5.265 5.654-1.43 1.128-2.226 1.692-2.226 1.692s.882-.411 2.493-1.27c1.578-.937 3.926-2.387 6.381-4.886 2.463-2.474 5.08-5.939 7.188-10.394a54.592 54.592 0 004.59-15.806c.893-5.987 1.03-12.569.356-19.438-.681-6.864-2.027-14.048-4.279-21.216-2.23-7.164-5.044-14.434-8.726-21.4a140.638 140.638 0 00-12.787-20.182c-4.956-6.324-10.508-12.201-16.556-17.388-6.053-5.177-12.728-9.512-19.738-12.716-6.987-3.224-14.466-5.137-21.752-5.151-7.297-.074-14.226 2.036-19.468 5.878-.589.434-1.167.859-1.74 1.284l-.855.64-.848.826c-1.083 1.113-2.273 2.131-3.132 3.272-.824 1.147-1.625 2.266-2.406 3.351-.69 1.13-1.244 2.298-1.834 3.383-.627 1.072-1.047 2.189-1.44 3.268-.402 1.074-.803 2.103-1.125 3.103-.476 2.058-1 3.911-1.297 5.612l-.597 4.564c-.12 1.326-.1 2.466-.145 3.38l-.067 2.799.593-2.735m8.309-96.643c11.014-5.29 20.106-10.524 27.038-13.575 3.449-1.539 6.44-2.425 8.565-2.506 2.165-.093 3.088.723 3.078.652 0 0-.271-.043-.767-.023-.498.003-1.216.174-2.068.522-1.729.686-3.908 2.453-6.592 4.829-4.061 3.644-9.302 8.886-16.077 14.635 11.803 2.997 29.643 5.417 45.718-.936 13.089-5.177 22.977-15.509 29.389-30.706 10.292-24.39 9.369-46.963-2.603-63.557-5.89-8.164-14.343-14.545-24.922-19.094a88.13 88.13 0 015.931 6.06c2.878 3.446 5.521 7.182 7.645 11.224 2.071 4.071 3.644 8.371 4.605 12.707.995 4.333 1.244 8.702 1.075 12.836-.331 8.309-2.71 15.645-5.415 21.435-1.419 2.876-2.82 5.442-4.295 7.565-1.417 2.159-2.822 3.91-4.004 5.318-1.225 1.38-2.196 2.441-2.916 3.101l-1.077 1.046.921-1.182c.626-.759 1.437-1.94 2.437-3.44.963-1.536 2.09-3.423 3.164-5.688 1.132-2.232 2.13-4.883 3.092-7.776a58.187 58.187 0 002.087-9.55c.46-3.416.511-7.046.175-10.705-.36-3.657-1.098-7.373-2.454-10.902-1.322-3.538-3.13-6.905-5.289-10.006-2.216-3.08-4.828-5.845-7.581-8.352-2.876-2.414-5.806-4.647-8.927-6.471-.771-.462-1.53-.922-2.289-1.376-.789-.413-1.571-.817-2.344-1.219a125.52 125.52 0 00-.879-.455c.554.568 1.113 1.133 1.66 1.717 2.747 3.099 5.31 6.455 7.463 10.063a58.42 58.42 0 011.54 2.804 55.453 55.453 0 013.558 8.496c1.258 3.847 1.952 7.74 2.282 11.466.65 7.437-.368 14.199-1.956 19.696-.832 2.688-1.759 5.121-2.757 7.165a50.03 50.03 0 01-1.528 2.91 89.612 89.612 0 01-1.36 2.245c-.941 1.36-1.687 2.398-2.277 3.051l-.859 1.029s.24-.4.693-1.142c.48-.736 1.054-1.868 1.759-3.293a79.37 79.37 0 001.08-2.526c.31-.862.649-1.8.941-2.811.656-2.079 1.187-4.501 1.584-7.119.383-2.615.568-5.466.499-8.46-.084-3.037-.52-6.228-1.273-9.432-.754-3.173-1.822-6.378-3.353-9.432-1.512-3.067-3.396-5.995-5.551-8.697-2.294-2.788-4.898-5.303-7.611-7.57-2.192-1.74-4.413-3.361-6.697-4.777a49.107 49.107 0 00-1.647-.966c-.709-.411-1.419-.817-2.118-1.216a98.177 98.177 0 00-1.074-.54l-.171.819a70.809 70.809 0 015.507 6.964c.553.812 1.085 1.63 1.602 2.462a63 63 0 013.985 7.435c1.527 3.359 2.66 6.772 3.492 10.096 1.629 6.562 1.978 12.747 1.495 17.951a41.679 41.679 0 01-1.214 6.768c-.272 1.003-.6 1.931-.882 2.771-.314.811-.616 1.556-.887 2.222-.661 1.337-1.179 2.354-1.635 2.998-.417.661-.643 1.013-.643 1.013s.16-.384.462-1.101c.337-.712.67-1.797 1.083-3.144.165-.699.351-1.479.538-2.335.111-.821.259-1.707.338-2.654.183-1.921.248-4.117.077-6.457-.14-2.318-.501-4.802-1.089-7.374-.631-2.657-1.547-5.41-2.72-8.157-1.15-2.693-2.548-5.387-4.25-7.964a55.369 55.369 0 00-5.814-7.389c-2.372-2.497-4.969-4.759-7.641-6.786a78.41 78.41 0 00-2.716-1.922l-2.351 2.848c7.577 10.002 12.525 21.636 13.709 30.814.352 2.314.377 4.477.327 6.366-.039.943-.167 1.829-.234 2.634-.151.799-.294 1.535-.419 2.199-.38 1.315-.674 2.306-.993 2.943-.276.651-.425.998-.425.998l.231-1.061c.191-.688.287-1.726.406-2.996a339.34 339.34 0 01-.008-2.141c-.084-.779-.122-1.612-.257-2.498-.295-1.766-.695-3.733-1.434-5.8-1.362-4.153-3.755-8.712-6.842-13.164-2.766-3.959-6.145-7.802-9.848-11.278l-46.058 55.83 24.616 36.953a256.731 256.731 0 0013.244-5.935m148.286-256.66L413.024 218.817c23.884 4.194 42.309 14.323 53.499 29.837 14.207 19.696 15.618 46.947 3.879 74.775-7.663 18.159-19.696 30.585-35.772 36.946-23.524 9.298-49.201 2.962-61.129-1.035a158.778 158.778 0 01-7.148 4.806l16.955 25.452c3.306-.843 6.783-1.271 10.407-1.271 28.024 0 60.908 25.17 81.824 62.628 12.899 23.096 19.667 47.843 19.059 69.681-.619 22.269-8.827 38.927-23.103 46.897-5.822 3.252-12.395 4.9-19.544 4.9-28.021 0-60.905-25.168-81.819-62.628-21.857-39.143-24.702-81.098-9.302-104.084l-19.223-28.855c-.882.358-1.747.73-2.645 1.071a140.163 140.163 0 01-11.884 4.006c-4.068 1.193-8.23 2.272-12.47 3.123-4.24.858-8.529 1.65-12.863 2.18a214.89 214.89 0 01-6.589.703l-3.197.268-1.555.121-1.835.074c-4.927.2-9.945-.004-14.911-.657l-19.197 23.269c15.238 25.478 2.385 70.373-32.047 106.008-24.597 25.461-55.786 41.277-81.392 41.277-12.782 0-23.632-3.955-31.376-11.436-11.761-11.363-15.426-29.565-10.319-51.25 5.007-21.263 17.889-43.45 36.272-62.478 24.601-25.462 55.79-41.278 81.396-41.278 5.596 0 10.791.802 15.547 2.282l13.202-16a74.359 74.359 0 01-9.074-6.279c-6.79-5.547-12.32-11.797-16.721-18.063-4.414-6.283-7.843-12.526-10.643-18.365a.053.053 0 00-.006-.014c-15.569 2.353-66.387 5.556-86.737-47.9-9.982-26.243-7.474-52.289 6.887-71.47 15.902-21.24 44.767-32.57 82.23-32.57.369 0 .75.022 1.116.024L129.155 57.959c-4.237-6.355-2.513-14.936 3.839-19.167a13.765 13.765 0 017.65-2.322c4.47 0 8.859 2.163 11.519 6.162l66.844 100.337 3.514-23.601 10.097 1.909c20.079 5.731 110.893 18.261 170.514 18.261h9.255l-.04 10.227c-.034 8.088-.963 18.469-2.298 29.011l88.413-107.07c2.732-3.311 6.686-4.975 10.67-4.975 3.098 0 6.215 1.058 8.79 3.185 5.889 4.858 6.726 13.596 1.865 19.485"
            ></path>
          </g>
        </g>
      </g>
    </svg>